<?xml version="1.0" encoding="UTF-8"?>
<svg width="400" height="400" viewBox="0 0 400 400" fill="none" xmlns="http://www.w3.org/2000/svg">
  <rect width="400" height="400" rx="80" fill="#5181B8"/>
  <path d="M320.454 138.166C322.002 132.561 320.454 128.376 312.896 128.376H286.504C280.157 128.376 277.173 132.002 275.625 136.047C275.625 136.047 260.67 172.969 239.141 197.245C233.293 203.099 230.535 204.987 227.219 204.987C225.67 204.987 223.289 203.099 223.289 197.494V138.166C223.289 131.811 221.367 128.376 216.057 128.376H170.353C166.27 128.376 163.82 131.965 163.82 135.35C163.82 141.345 174.774 142.882 175.925 161.952V206.542C175.925 214.655 174.382 216.319 171.063 216.319C160.72 216.319 142.117 179.105 127.846 138.735C125.399 131.757 122.943 128.376 116.551 128.376H90.154C82.872 128.376 81.5 132.002 81.5 136.047C81.5 142.659 91.844 180.822 128.677 231.052C152.891 264.736 186.424 283.124 217.106 283.124C235.407 283.124 239.141 279.289 239.141 273.088V249.341C239.141 242.122 240.612 240.741 245.6 240.741C249.431 240.741 256.174 242.629 273.73 259.543C294.047 279.898 296.921 283.124 306.729 283.124H333.121C340.403 283.124 344.23 279.289 342.071 272.271C339.732 265.25 330.882 254.864 319.048 242.316C312.658 235.297 302.896 227.709 300.05 223.664C296.218 218.561 297.317 216.424 300.05 212.072C300.05 212.072 336.356 161.712 320.454 138.166Z" fill="white"/>
</svg>
